<?xml version="1.0" standalone="no"?>
<!DOCTYPE svg PUBLIC "-//W3C//DTD SVG 20010904//EN"
 "http://www.w3.org/TR/2001/REC-SVG-20010904/DTD/svg10.dtd">
<svg version="1.0" xmlns="http://www.w3.org/2000/svg"
 width="512.000000pt" height="512.000000pt" viewBox="0 0 512.000000 512.000000"
 preserveAspectRatio="xMidYMid meet">
<metadata>
Created by potrace 1.14, written by Peter Selinger 2001-2017
</metadata>
<g transform="translate(0.000000,512.000000) scale(0.100000,-0.100000)"
fill="#000000" stroke="none">
<path d="M2428 5055 c-2 -2 -41 -6 -88 -9 -47 -3 -94 -8 -105 -10 -29 -5 -101
-17 -128 -21 -77 -10 -248 -55 -362 -95 -273 -95 -532 -238 -735 -404 -41 -33
-83 -68 -94 -76 -33 -27 -190 -184 -239 -240 -165 -187 -347 -482 -426 -690
-12 -30 -26 -64 -31 -75 -55 -123 -128 -444 -146 -645 -14 -145 -6 -531 10
-559 2 -3 6 -30 10 -59 13 -109 57 -287 106 -429 78 -223 171 -402 330 -637
57 -85 171 -217 280 -325 337 -335 764 -564 1240 -665 114 -24 141 -28 295
-43 166 -15 450 -7 591 18 32 6 75 13 94 16 80 12 345 86 405 113 11 5 45 19
75 30 116 45 302 144 430 229 526 349 906 894 1050 1506 69 296 84 643 41 940
-49 330 -157 630 -331 921 -279 464 -714 835 -1214 1034 -138 55 -344 114
-466 134 -19 3 -46 8 -60 11 -32 6 -81 13 -160 21 -64 6 -367 14 -372 9z"/>
</g>
</svg>
